Coordinates
version=1
nRows=4
nColumns=107
inDegrees=yes

Units are S.I. units (second, meters, Newtons, ...)
If the header above contains a line with 'inDegrees', this indicates whether rotational values are in degrees (yes) or radians (no).

endheader
time	sternoclavicular_r2	sternoclavicular_r3	unrotscap_r3	unrotscap_r2	acromioclavicular_r2	acromioclavicular_r3	acromioclavicular_r1	unrothum_r1	unrothum_r3	unrothum_r2	elv_angle	shoulder_elv	shoulder1_r2	shoulder_rot	elbow_flexion	pro_sup	deviation	flexion	proximal_distal_r1	proximal_distal_r3	cmc_flexion	cmc_abduction	mp_flexion	ip_flexion	mcp2_flexion	mcp2_abduction	pm2_flexion	md2_flexion	mcp3_flexion	mcp3_abduction	pm3_flexion	md3_flexion	mcp4_flexion	mcp4_abduction	pm4_flexion	md4_flexion	mcp5_flexion	mcp5_abduction	pm5_flexion	md5_flexion	bicpt_tx	bicpt_ty	bicpt_tz	bicpt2_tx	bicpt2_ty	bicpt2_tz	ptpt_tx	ptpt_ty	ptpt_tz	FCUpt_tx	FCUpt_ty	FCUpt_tz	EDCpt_tx	EDCpt_ty	EDCpt_tz	APLpt_tx	APLpt_ty	APLpt_tz	FPLpt_tx	FPLpt_ty	FPLpt_tz	FPLpt2_tx	FPLpt2_ty	FPLpt2_tz	PEC1pt2_tx	PEC1pt2_ty	PEC1pt2_tz	PEC1pt3_tx	PEC1pt3_ty	PEC1pt3_tz	PEC2pt2_tx	PEC2pt2_ty	PEC2pt2_tz	PEC2pt3_tx	PEC2pt3_ty	PEC2pt3_tz	PEC3pt2_tx	PEC3pt2_ty	PEC3pt2_tz	PEC3pt3_tx	PEC3pt3_ty	PEC3pt3_tz	DELT2pt2a_tx	DELT2pt2a_ty	DELT2pt2a_tz	DELT2pt2_tx	DELT2pt2_ty	DELT2pt2_tz	LAT1pt2_tx	LAT1pt2_ty	LAT1pt2_tz	LAT1pt3_tx	LAT1pt3_ty	LAT1pt3_tz	LAT2pt2_tx	LAT2pt2_ty	LAT2pt2_tz	LAT2pt3_tx	LAT2pt3_ty	LAT2pt3_tz	LAT3pt2_tx	LAT3pt2_ty	LAT3pt2_tz	LAT3pt3_tx	LAT3pt3_ty	LAT3pt3_tz
      0.00000000	     -0.31524689	      0.13352370	     -0.13352370	      0.31524689	     -0.06383108	      0.51586035	      0.23187568	     -0.23187568	     -0.51586035	      0.06383108	     99.61953580	     74.63750252	     -1.73868890	    -28.72680987	     29.90533855	     29.70966831	      0.10666408	     -1.04293174	      0.13544601	     -0.52146587	      2.86097684	      2.15528981	    -40.47601998	    -60.61263089	     79.52102541	     13.12076123	     82.93902604	     62.81334811	     72.03150737	      6.19159346	     73.50179584	     66.32365081	     77.73911338	    -10.03278721	    105.77389728	     85.22629569	     79.52371134	    -13.74452442	    105.72855615	      5.64318536	      0.00088918	     -0.03102761	     -0.00485210	      0.01643406	     -0.01832393	     -0.00849431	      0.00535479	     -0.06631946	     -0.00244327	      0.00676056	     -0.18369409	     -0.00027350	     -0.00356515	      0.00097798	      0.00019160	      0.00015617	      0.00006247	      0.00031234	      0.00019990	      0.00059969	      0.00033732	      0.00004156	     -0.00006698	     -0.00008037	      0.00244645	      0.00858332	      0.00597101	     -0.00800281	      0.01932284	     -0.01832767	      0.00244645	      0.00858332	      0.00597101	      0.00053905	      0.01791302	     -0.00941263	      0.00388961	      0.00477308	      0.01582329	      0.00000000	      0.00744808	      0.00000000	     -0.00700764	     -0.03238441	     -0.00613936	      0.01830279	     -0.00071387	     -0.00688884	     -0.00087077	      0.01459579	     -0.00597101	      0.00240499	      0.02106438	     -0.01741543	     -0.00584661	      0.01264692	     -0.00534903	     -0.01219080	      0.02670366	     -0.02989649	     -0.02288885	      0.01413967	     -0.00717350	     -0.01517630	      0.03085019	     -0.03736025
      0.03333333	     -0.31670912	      0.13414303	     -0.13414303	      0.31670912	     -0.06412715	      0.51825310	      0.23295120	     -0.23295120	     -0.51825310	      0.06412715	     99.20931709	     74.98369899	     -1.73152923	    -26.81775592	     29.92856455	     27.04339556	      0.11504625	     -1.06287540	      0.14530115	     -0.53143770	      3.09202739	      3.98221458	    -40.79373652	    -60.91265821	     80.87869376	     13.10850967	     82.63969486	     67.88075048	     74.60117367	      8.52285861	     78.08009348	     18.55469190	     78.38252288	    -10.54846552	    102.95820397	     85.20312189	     81.64972421	    -13.80257129	    101.14993932	      5.62604409	      0.00088994	     -0.03103027	     -0.00485253	      0.01635818	     -0.01833024	     -0.00873548	      0.00555180	     -0.06619207	     -0.00222849	      0.00650169	     -0.18374076	     -0.00023123	     -0.00324520	      0.00087909	      0.00019394	      0.00014140	      0.00005656	      0.00028280	      0.00018099	      0.00054297	      0.00030542	      0.00004210	     -0.00007199	     -0.00008639	      0.00245780	      0.00862313	      0.00599870	     -0.00803993	      0.01941246	     -0.01841268	      0.00245780	      0.00862313	      0.00599870	      0.00054155	      0.01799610	     -0.00945629	      0.00390289	      0.00479521	      0.01585646	      0.00000000	      0.00751779	      0.00000000	     -0.00704014	     -0.03253462	     -0.00619726	      0.01739961	     -0.00064999	     -0.00601284	     -0.00087481	      0.01466349	     -0.00599870	      0.00241614	      0.02116208	     -0.01749621	     -0.00587373	      0.01270558	     -0.00537384	     -0.01224735	      0.02682752	     -0.03003516	     -0.02299502	      0.01420526	     -0.00720677	     -0.01524670	      0.03099329	     -0.03753354
      0.06666667	     -0.31654353	      0.13407290	     -0.13407290	      0.31654353	     -0.06409363	      0.51798213	      0.23282940	     -0.23282940	     -0.51798213	      0.06409363	     99.13240666	     74.94449385	     -1.73018689	    -27.04687149	     30.19159052	     26.78501217	      0.10647675	     -1.05403789	      0.13522475	     -0.52701895	      2.71727055	      3.85796746	    -40.80244365	    -60.83779848	     80.57654594	     13.09504015	     83.24622616	     68.36554683	     80.53507696	      8.47020286	     80.32999638	     19.32034047	     77.99514185	    -10.71477288	    102.82790788	     85.24948909	     81.94962079	    -13.83395418	    100.63240077	      5.51259721	      0.00089864	     -0.03106042	     -0.00485738	      0.01634996	     -0.01840169	     -0.00875832	      0.00557089	     -0.06617973	     -0.00220768	      0.00647672	     -0.18374517	     -0.00022685	     -0.00321419	      0.00086962	      0.00019397	      0.00014802	      0.00005921	      0.00029605	      0.00018947	      0.00056841	      0.00031973	      0.00004108	     -0.00006383	     -0.00007660	      0.00245652	      0.00861862	      0.00599556	     -0.00803572	      0.01940231	     -0.01840305	      0.00245652	      0.00861862	      0.00599556	      0.00054127	      0.01798669	     -0.00945134	      0.00390139	      0.00479271	      0.01585272	      0.00000000	      0.00750987	      0.00000000	     -0.00703646	     -0.03251761	     -0.00619068	      0.01751059	     -0.00065759	     -0.00611545	     -0.00087435	      0.01465582	     -0.00599556	      0.00241488	      0.02115102	     -0.01748706	     -0.00587066	      0.01269894	     -0.00537103	     -0.01224094	      0.02681350	     -0.03001946	     -0.02298300	      0.01419783	     -0.00720300	     -0.01523873	      0.03097708	     -0.03751391
      0.10000000	     -0.31715209	      0.13433066	     -0.13433066	      0.31715209	     -0.06421685	      0.51897798	      0.23327703	     -0.23327703	     -0.51897798	      0.06421685	     99.09555538	     75.08857749	     -1.72954372	    -26.73782242	     30.10499273	     28.09268598	      0.11297661	     -1.05647109	      0.14287841	     -0.52823554	      3.64399897	      3.36521269	    -41.18501516	    -61.55093111	     81.52843537	     13.13498165	     83.95582345	     77.45368719	     83.67342280	      6.90229695	     81.54597718	     31.39077001	     78.63329750	    -10.95294504	     99.33658992	     85.26463922	     84.93359981	    -13.83191256	     94.10838124	      5.58829729	      0.00089578	     -0.03105049	     -0.00485578	      0.01638998	     -0.01837817	     -0.00864176	      0.00547427	     -0.06624220	     -0.00231302	      0.00660330	     -0.18372263	     -0.00024850	     -0.00337111	      0.00091775	      0.00019348	      0.00014621	      0.00005848	      0.00029242	      0.00018715	      0.00056145	      0.00031582	      0.00004242	     -0.00008372	     -0.00010047	      0.00246124	      0.00863519	      0.00600709	     -0.00805117	      0.01943961	     -0.01843843	      0.00246124	      0.00863519	      0.00600709	      0.00054231	      0.01802127	     -0.00946951	      0.00390690	      0.00480192	      0.01586645	      0.00000000	      0.00753898	      0.00000000	     -0.00704999	     -0.03258013	     -0.00621485	      0.01736073	     -0.00064734	     -0.00597720	     -0.00087603	      0.01468400	     -0.00600709	      0.00241952	      0.02119168	     -0.01752068	     -0.00588194	      0.01272335	     -0.00538135	     -0.01226448	      0.02686505	     -0.03007717	     -0.02302718	      0.01422513	     -0.00721685	     -0.01526802	      0.03103664	     -0.03758604
